<?xml version="1.0" encoding="UTF-8"?>
<svg width="32" height="32" viewBox="0 0 32 32" version="1.1" xmlns="http://www.w3.org/2000/svg">
    <g transform="translate(16,16)">
        <!-- 8 petals -->
        <g transform="rotate(0)">
            <path d="M0,0 C6,-6 0,-15 0,-15 C0,-15 -6,-6 0,0" fill="#FF355E"/>
        </g>
        <g transform="rotate(45)">
            <path d="M0,0 C6,-6 0,-15 0,-15 C0,-15 -6,-6 0,0" fill="#FF355E"/>
        </g>
        <g transform="rotate(90)">
            <path d="M0,0 C6,-6 0,-15 0,-15 C0,-15 -6,-6 0,0" fill="#FF355E"/>
        </g>
        <g transform="rotate(135)">
            <path d="M0,0 C6,-6 0,-15 0,-15 C0,-15 -6,-6 0,0" fill="#FF355E"/>
        </g>
        <g transform="rotate(180)">
            <path d="M0,0 C6,-6 0,-15 0,-15 C0,-15 -6,-6 0,0" fill="#FF355E"/>
        </g>
        <g transform="rotate(225)">
            <path d="M0,0 C6,-6 0,-15 0,-15 C0,-15 -6,-6 0,0" fill="#FF355E"/>
        </g>
        <g transform="rotate(270)">
            <path d="M0,0 C6,-6 0,-15 0,-15 C0,-15 -6,-6 0,0" fill="#FF355E"/>
        </g>
        <g transform="rotate(315)">
            <path d="M0,0 C6,-6 0,-15 0,-15 C0,-15 -6,-6 0,0" fill="#FF355E"/>
        </g>
        <!-- Blue center and veins -->
        <circle cx="0" cy="0" r="2.5" fill="#1E90FF"/>
        <!-- Veins -->
        <g transform="rotate(0)">
            <path d="M0,-2.5 L0,-5" stroke="#1E90FF" stroke-width="1" stroke-linecap="round"/>
        </g>
        <g transform="rotate(45)">
            <path d="M0,-2.5 L0,-5" stroke="#1E90FF" stroke-width="1" stroke-linecap="round"/>
        </g>
        <g transform="rotate(90)">
            <path d="M0,-2.5 L0,-5" stroke="#1E90FF" stroke-width="1" stroke-linecap="round"/>
        </g>
        <g transform="rotate(135)">
            <path d="M0,-2.5 L0,-5" stroke="#1E90FF" stroke-width="1" stroke-linecap="round"/>
        </g>
        <g transform="rotate(180)">
            <path d="M0,-2.5 L0,-5" stroke="#1E90FF" stroke-width="1" stroke-linecap="round"/>
        </g>
        <g transform="rotate(225)">
            <path d="M0,-2.5 L0,-5" stroke="#1E90FF" stroke-width="1" stroke-linecap="round"/>
        </g>
        <g transform="rotate(270)">
            <path d="M0,-2.5 L0,-5" stroke="#1E90FF" stroke-width="1" stroke-linecap="round"/>
        </g>
        <g transform="rotate(315)">
            <path d="M0,-2.5 L0,-5" stroke="#1E90FF" stroke-width="1" stroke-linecap="round"/>
        </g>
    </g>
</svg>